<?xml version="1.0" encoding="UTF-8" standalone="no"?>
<!-- Created with Inkscape (http://www.inkscape.org/) -->
<svg
   xmlns:dc="http://purl.org/dc/elements/1.1/"
   xmlns:cc="http://web.resource.org/cc/"
   xmlns:rdf="http://www.w3.org/1999/02/22-rdf-syntax-ns#"
   xmlns:svg="http://www.w3.org/2000/svg"
   xmlns="http://www.w3.org/2000/svg"
   xmlns:xlink="http://www.w3.org/1999/xlink"
   xmlns:sodipodi="http://sodipodi.sourceforge.net/DTD/sodipodi-0.dtd"
   xmlns:inkscape="http://www.inkscape.org/namespaces/inkscape"
   width="64px"
   height="64px"
   id="svg1974"
   sodipodi:version="0.32"
   inkscape:version="0.44"
   sodipodi:docbase="/home/sciyoshi"
   sodipodi:docname="test.svg"
   inkscape:export-filename="/home/sciyoshi/test.png"
   inkscape:export-xdpi="45"
   inkscape:export-ydpi="45">
  <defs
     id="defs1976">
    <linearGradient
       id="linearGradient3264">
      <stop
         style="stop-color:#c9c9c9;stop-opacity:1;"
         offset="0"
         id="stop3266" />
      <stop
         id="stop3276"
         offset="0.25"
         style="stop-color:#f8f8f8;stop-opacity:1;" />
      <stop
         id="stop3272"
         offset="0.5"
         style="stop-color:#e2e2e2;stop-opacity:1;" />
      <stop
         style="stop-color:#b0b0b0;stop-opacity:1;"
         offset="0.75"
         id="stop3274" />
      <stop
         style="stop-color:#c9c9c9;stop-opacity:1;"
         offset="1"
         id="stop3268" />
    </linearGradient>
    <linearGradient
       inkscape:collect="always"
       xlink:href="#linearGradient3264"
       id="linearGradient3281"
       gradientUnits="userSpaceOnUse"
       x1="14.462892"
       y1="12.284524"
       x2="34.534348"
       y2="39.684914"
       gradientTransform="matrix(0.734649,0.132897,-0.132897,0.734649,29.9443,-3.208983)" />
    <linearGradient
       id="aigrd1"
       gradientUnits="userSpaceOnUse"
       x1="99.7773"
       y1="15.4238"
       x2="153.0005"
       y2="248.6311">
      <stop
         offset="0"
         style="stop-color:#184375"
         id="stop53300" />
      <stop
         offset="1"
         style="stop-color:#C8BDDC"
         id="stop53302" />
    </linearGradient>
    <linearGradient
       inkscape:collect="always"
       xlink:href="#aigrd1"
       id="linearGradient3773"
       gradientUnits="userSpaceOnUse"
       gradientTransform="matrix(0.200685,0,0,0.200685,-53.48347,14.66517)"
       x1="99.7773"
       y1="15.4238"
       x2="153.0005"
       y2="248.6311" />
    <linearGradient
       inkscape:collect="always"
       xlink:href="#aigrd1"
       id="linearGradient2083"
       gradientUnits="userSpaceOnUse"
       gradientTransform="matrix(0.200685,0,0,0.200685,-53.48347,14.66517)"
       x1="99.7773"
       y1="15.4238"
       x2="153.0005"
       y2="248.6311" />
    <linearGradient
       inkscape:collect="always"
       xlink:href="#aigrd1"
       id="linearGradient1901"
       gradientUnits="userSpaceOnUse"
       gradientTransform="matrix(0.200685,0,0,0.200685,-51.13992,13.18885)"
       x1="99.7773"
       y1="15.4238"
       x2="153.0005"
       y2="248.6311" />
  </defs>
  <sodipodi:namedview
     id="base"
     pagecolor="#ffffff"
     bordercolor="#666666"
     borderopacity="1.0"
     inkscape:pageopacity="0.0"
     inkscape:pageshadow="2"
     inkscape:zoom="5.5"
     inkscape:cx="32"
     inkscape:cy="31.10194"
     inkscape:current-layer="layer1"
     showgrid="true"
     inkscape:document-units="px"
     inkscape:grid-bbox="true"
     inkscape:window-width="831"
     inkscape:window-height="584"
     inkscape:window-x="240"
     inkscape:window-y="64" />
  <metadata
     id="metadata1979">
    <rdf:RDF>
      <cc:Work
         rdf:about="">
        <dc:format>image/svg+xml</dc:format>
        <dc:type
           rdf:resource="http://purl.org/dc/dcmitype/StillImage" />
      </cc:Work>
    </rdf:RDF>
  </metadata>
  <g
     id="layer1"
     inkscape:label="Layer 1"
     inkscape:groupmode="layer">
    <path
       style="opacity:1;color:black;fill:url(#linearGradient3281);fill-opacity:1;fill-rule:nonzero;stroke:gray;stroke-width:1.5;stroke-linecap:butt;stroke-linejoin:miter;marker:none;marker-start:none;marker-mid:none;marker-end:none;stroke-miterlimit:4;stroke-dasharray:none;stroke-dashoffset:0;stroke-opacity:1;visibility:visible;display:inline;overflow:visible"
       d="M 45.849922,4.3586207 C 45.571191,4.3276537 45.295868,4.3218857 45.019839,4.3039127 L 45.001354,4.3005687 L 43.715656,7.7142617 C 42.617665,7.7636537 41.551821,7.9917507 40.559098,8.3841237 L 38.034745,5.7702517 C 37.140012,6.2374277 36.297573,6.8186577 35.531038,7.4745547 L 37.014262,10.778249 C 36.233348,11.60251 35.58017,12.586837 35.118169,13.661533 C 35.117165,13.666827 35.114955,13.679088 35.114825,13.680019 L 31.502256,13.599223 C 31.343166,14.112083 31.2169,14.649008 31.118901,15.190743 C 31.038719,15.633982 30.971848,16.073511 30.936932,16.513246 L 34.335485,17.777115 C 34.364639,19.041986 34.633101,20.2669 35.11329,21.392278 L 32.506106,23.879661 C 32.969991,24.730566 33.538329,25.53169 34.175016,26.262423 L 37.500539,24.764056 C 38.414926,25.610443 39.485164,26.281557 40.694734,26.735484 L 40.617282,30.329567 C 41.004865,30.436725 41.408783,30.510929 41.812153,30.583898 C 42.381616,30.686913 42.929469,30.763732 43.49257,30.792432 L 44.803441,27.34511 C 46.044447,27.264404 47.252774,26.953533 48.346242,26.439672 L 50.818483,29.025027 C 51.670358,28.530484 52.476047,27.930661 53.199478,27.260345 L 51.670829,23.891162 C 52.40669,23.024251 52.988471,22.026127 53.3921,20.918983 L 56.986183,20.996434 C 57.082776,20.637385 57.153071,20.284944 57.22045,19.912476 C 57.33754,19.265208 57.377113,18.616957 57.398513,17.978372 L 53.966334,16.68933 C 53.873988,15.611977 53.590968,14.571205 53.168839,13.605137 L 55.776023,11.117754 C 55.271785,10.208791 54.665513,9.3437007 53.964151,8.5754977 L 50.576483,10.100803 C 49.803128,9.4319677 48.942272,8.8703967 47.970669,8.4648977 L 48.051464,4.8523287 C 47.557448,4.7016427 47.054515,4.5765297 46.533887,4.4823487 C 46.393177,4.4568947 46.249162,4.4262707 46.108719,4.4054367 C 46.040253,4.3952807 45.973994,4.3769757 45.905379,4.3686527 C 45.886795,4.3663987 45.868504,4.3606857 45.849922,4.3586207 z M 44.70536,13.429527 C 44.773513,13.438317 44.84032,13.453941 44.908701,13.466311 C 47.096869,13.862147 48.559962,15.971489 48.164126,18.159657 C 47.768289,20.347825 45.662291,21.792433 43.474123,21.396596 C 41.285955,21.000761 39.838002,18.913247 40.233839,16.725079 C 40.617305,14.605293 42.592605,13.157044 44.70536,13.429527 z "
       id="path2074" />
    <path
       inkscape:r_cy="true"
       inkscape:r_cx="true"
       style="color:black;fill:url(#linearGradient1901);fill-opacity:1;fill-rule:nonzero;stroke:#3f4561;stroke-width:2;stroke-linecap:round;stroke-linejoin:round;marker:none;marker-start:none;marker-mid:none;marker-end:none;stroke-miterlimit:4;stroke-dasharray:none;stroke-dashoffset:0;stroke-opacity:1;visibility:visible;display:inline;overflow:visible"
       d="M 25.895355,15.187098 C 25.42218,15.219473 24.962267,15.29276 24.497503,15.345945 L 24.465733,15.345945 L 23.353805,21.413895 C 21.541451,21.826633 19.836392,22.527086 18.302474,23.478905 L 13.314683,19.888965 C 11.966352,20.935769 10.739382,22.156633 9.6612045,23.478905 L 13.124066,28.530236 C 12.072644,30.137019 11.281983,31.971723 10.836671,33.899261 C 10.836595,33.908372 10.836609,33.929442 10.836671,33.93103 L 4.8004905,34.884111 C 4.6901335,35.78548 4.6416435,36.717015 4.6416435,37.648047 C 4.6416435,38.4098 4.6626765,39.161376 4.7369515,39.903672 L 10.773134,40.983831 C 11.202431,43.079992 12.017943,45.037616 13.155836,46.765857 L 9.5658965,51.69011 C 10.594031,52.966494 11.781002,54.12859 13.060528,55.152971 L 18.143628,51.65834 C 19.920103,52.791584 21.903173,53.586232 24.052731,53.977505 L 25.005813,59.981916 C 25.683067,60.043563 26.377588,60.045455 27.070822,60.045455 C 28.049507,60.045454 28.984342,60.008366 29.930066,59.886608 L 31.073763,53.755119 C 33.11469,53.247215 35.031942,52.366121 36.696943,51.1818 L 41.589426,54.73997 C 42.858196,53.660525 44.018413,52.419782 45.020519,51.086491 L 41.462349,45.939854 C 42.425955,44.275657 43.093647,42.439488 43.43205,40.475521 L 49.436462,39.52244 C 49.48912,38.89585 49.5,38.288175 49.5,37.648047 C 49.5,36.535647 49.370705,35.444946 49.214076,34.375801 L 43.114356,33.263873 C 42.636348,31.498793 41.852044,29.851993 40.858731,28.371389 L 44.44867,23.447135 C 43.335905,22.086281 42.066548,20.829155 40.668114,19.761888 L 35.489706,23.320058 C 34.001379,22.43983 32.399727,21.764444 30.660761,21.382126 L 29.70768,15.345945 C 28.840199,15.243901 27.965579,15.187098 27.070822,15.187098 C 26.828996,15.187098 26.580116,15.179489 26.340126,15.187098 C 26.223131,15.190807 26.107355,15.180292 25.990663,15.187098 C 25.959058,15.188941 25.9269,15.184939 25.895355,15.187098 z M 26.721359,30.627015 C 26.837422,30.621126 26.953303,30.627015 27.070822,30.627015 C 30.831428,30.627015 33.901238,33.696825 33.901238,37.457431 C 33.901239,41.218036 30.831427,44.256077 27.070822,44.256077 C 23.310217,44.256078 20.272176,41.218036 20.272176,37.457431 C 20.272177,33.814345 23.123388,30.809592 26.721359,30.627015 z "
       id="path3243" />
    <path
       inkscape:r_cy="true"
       inkscape:r_cx="true"
       sodipodi:type="arc"
       style="opacity:0.64772728;color:black;fill:none;fill-opacity:1;fill-rule:nonzero;stroke:white;stroke-width:1.62180054;stroke-linecap:butt;stroke-linejoin:miter;marker:none;marker-start:none;marker-mid:none;marker-end:none;stroke-miterlimit:4;stroke-dasharray:none;stroke-dashoffset:0;stroke-opacity:1;visibility:visible;display:inline;overflow:visible"
       id="path3283"
       sodipodi:cx="23.511301"
       sodipodi:cy="23.781593"
       sodipodi:rx="12.727922"
       sodipodi:ry="12.727922"
       d="M 36.239223 23.781593 A 12.727922 12.727922 0 1 1  10.783379,23.781593 A 12.727922 12.727922 0 1 1  36.239223 23.781593 z"
       transform="matrix(0.616598,0,0,0.616598,12.57786,22.77931)" />
    <path
       inkscape:r_cy="true"
       inkscape:r_cx="true"
       id="path3285"
       d="M 25.191638,16.388095 L 24.298854,22.263153 C 22.600084,22.650023 19.475272,23.833232 18.037487,24.725399 L 13.287805,21.180255 C 12.023975,22.161454 11.937304,22.227994 10.926697,23.467397 L 14.360893,28.560617 C 13.375367,30.0667 12.191626,32.750611 11.766609,34.668559 C 11.766609,34.668559 5.7488185,35.682984 5.7488185,35.682984 C 5.6453775,36.527863 5.6950905,38.336157 5.7647105,39.031932 L 11.512927,40.067449 C 11.91532,42.032239 13.421154,45.194861 14.487734,46.81479 L 10.852733,51.617347 C 11.816432,52.813738 12.009304,52.923217 13.20864,53.883398 L 18.069271,50.322361 C 19.734411,51.384582 23.03956,52.676737 25.054401,53.043488 L 25.852129,58.84458 C 26.486939,58.902364 28.240659,59.064455 29.127113,58.950329 L 30.019896,52.911449 C 31.932914,52.435377 35.238369,51.078524 36.799021,49.968426 L 41.654454,53.476586 C 42.843708,52.464794 42.854363,52.312337 43.793665,51.062606 L 40.195645,45.948296 C 41.09886,44.388396 42.266732,41.337697 42.583927,39.496816 L 48.474876,38.519373 C 48.524229,37.932053 48.526632,36.294207 48.37982,35.292068 L 42.377922,34.256551 C 41.92987,32.602092 40.392248,29.620782 39.461189,28.232971 L 43.275905,23.430414 C 42.232882,22.154846 41.84507,21.979828 40.534278,20.979449 L 35.509824,24.577467 C 34.114771,23.752406 31.332925,22.49467 29.702944,22.136312 L 28.815358,16.388095 C 28.002244,16.292447 25.656318,16.33492 25.191638,16.388095 z "
       style="opacity:0.34659089;color:black;fill:none;fill-opacity:1;fill-rule:nonzero;stroke:white;stroke-width:0.99999923;stroke-linecap:butt;stroke-linejoin:miter;marker:none;marker-start:none;marker-mid:none;marker-end:none;stroke-miterlimit:4;stroke-dasharray:none;stroke-dashoffset:0;stroke-opacity:1;visibility:visible;display:inline;overflow:visible"
       sodipodi:nodetypes="ccccccccccccccccccccccccccccccccc" />
    <path
       style="opacity:0.5;color:black;fill:white;fill-opacity:1;fill-rule:nonzero;stroke:none;stroke-width:1;stroke-linecap:butt;stroke-linejoin:miter;marker:none;marker-start:none;marker-mid:none;marker-end:none;stroke-miterlimit:4;stroke-dasharray:none;stroke-dashoffset:0;stroke-opacity:1;visibility:visible;display:inline;overflow:visible"
       d="M 13.298733,20.536694 C 11.950399,21.583498 11.361477,22.211551 10.283299,23.533822 L 13.685757,28.498782 C 12.634337,30.097384 11.527457,32.665743 11.338216,34.227335 C 11.338216,34.227335 5.2757165,35.271529 5.2757165,35.271529 C 5.2067435,35.834885 5.1020805,37.124432 5.1020805,37.124432 L 5.2788565,38.686932 C 5.7065865,38.775267 6.1190115,38.857447 6.5601065,38.905682 L 7.0601065,37.374432 C 7.4041475,37.402908 7.7397595,37.436932 8.0913565,37.436932 C 8.4425645,37.436932 8.8098145,37.403102 9.1538565,37.374432 L 9.6226065,38.905682 C 10.063894,38.857447 10.507378,38.775267 10.935106,38.686932 L 10.935106,37.124432 C 11.620863,36.964809 12.267107,36.736674 12.903856,36.468182 L 13.841357,37.749432 C 14.243708,37.567338 14.616953,37.373613 14.997607,37.155682 L 14.497607,35.655682 C 15.09484,35.293432 15.659359,34.860335 16.185107,34.405682 L 17.466357,35.343182 C 17.791992,35.046602 18.10747,34.73132 18.403857,34.405682 L 17.466357,33.155682 C 17.921203,32.629934 18.322857,32.0658 18.685107,31.468182 L 20.185107,31.936932 C 20.403038,31.556085 20.628401,31.182838 20.810107,30.780682 L 19.528857,29.843182 C 19.797347,29.206433 19.993846,28.56019 20.153857,27.874431 L 21.747607,27.874431 C 21.835942,27.446704 21.887066,27.003219 21.935107,26.561931 L 20.435107,26.093181 C 20.463969,25.749333 20.497607,25.382084 20.497607,25.030681 C 20.497606,24.679278 20.463583,24.343667 20.435107,23.999432 L 21.935107,23.530682 C 21.88956,23.110794 21.829516,22.688683 21.747607,22.280682 C 20.600179,22.679983 19.194947,23.433801 18.179095,24.064153 L 13.298733,20.536694 z "
       id="path3767"
       inkscape:r_cx="true"
       inkscape:r_cy="true"
       sodipodi:nodetypes="cccccccccsccccccccccccccccccccsccccc" />
    <path
       style="opacity:0.5;color:black;fill:white;fill-opacity:1;fill-rule:nonzero;stroke:none;stroke-width:1;stroke-linecap:butt;stroke-linejoin:miter;marker:none;marker-start:none;marker-mid:none;marker-end:none;stroke-miterlimit:4;stroke-dasharray:none;stroke-dashoffset:0;stroke-opacity:1;visibility:visible;display:inline;overflow:visible"
       d="M 40.432471,31.457383 C 40.04869,31.638759 39.685833,31.843138 39.319066,32.052924 L 39.888716,33.787765 C 39.191622,34.210065 38.533986,34.707454 37.920838,35.23778 L 36.444929,34.150268 C 36.064843,34.496167 35.703157,34.857852 35.357418,35.23778 L 36.444929,36.713688 C 35.914603,37.327 35.417377,37.984631 34.994914,38.681566 L 34.451158,38.500314 C 34.403476,39.200597 34.214779,39.861799 33.933296,40.468192 L 34.036868,40.545871 C 33.723711,41.288551 33.47232,42.076269 33.285967,42.876253 L 31.810059,42.876253 C 31.673776,42.961705 31.539506,43.061313 31.395768,43.135184 C 31.317398,43.550451 31.260856,43.95251 31.214517,44.378055 L 32.97525,44.947703 C 32.941863,45.348979 32.923463,45.754898 32.923463,46.164681 C 32.923461,46.574622 32.941864,46.980382 32.97525,47.381658 L 31.214517,47.951306 C 31.270535,48.46606 31.344508,48.979975 31.447555,49.479 L 33.285967,49.453107 C 33.414085,50.003094 33.589032,50.560546 33.777937,51.084374 C 34.522853,50.797094 35.25177,50.454189 35.927066,50.048649 C 35.515479,48.832608 35.279738,47.519542 35.279738,46.164681 C 35.279739,40.966748 38.572119,36.528026 43.177143,34.82349 L 42.089632,34.642237 C 41.866844,33.819575 41.578308,33.013646 41.209265,32.26007 C 41.198411,32.237906 41.19434,32.204489 41.183372,32.18239 L 41.131586,32.130604 L 40.432471,31.457383 z "
       id="path3770"
       inkscape:r_cx="true"
       inkscape:r_cy="true" />
  </g>
</svg>
